<svg width="24" height="24" viewBox="0 0 24 24" fill="none" xmlns="http://www.w3.org/2000/svg">
<g clip-path="url(#clip0_1470_650)">
<path d="M8.00024 1.99951V4.99951" stroke="white" stroke-width="1.5" stroke-miterlimit="10" stroke-linecap="round" stroke-linejoin="round"/>
<path d="M15.9998 1.99951V4.99951" stroke="white" stroke-width="1.5" stroke-miterlimit="10" stroke-linecap="round" stroke-linejoin="round"/>
<path d="M3.50024 9.08936H20.5002" stroke="white" stroke-width="1.5" stroke-miterlimit="10" stroke-linecap="round" stroke-linejoin="round"/>
<path d="M21 8.49951V16.9995C21 19.9995 19.5 21.9995 16 21.9995H8C4.5 21.9995 3 19.9995 3 16.9995V8.49951C3 5.49951 4.5 3.49951 8 3.49951H16C19.5 3.49951 21 5.49951 21 8.49951Z" stroke="white" stroke-width="1.5" stroke-miterlimit="10" stroke-linecap="round" stroke-linejoin="round"/>
<path d="M15.6945 13.6997H15.7034" stroke="white" stroke-width="1.5" stroke-linecap="round" stroke-linejoin="round"/>
<path d="M15.6945 16.6997H15.7034" stroke="white" stroke-width="1.5" stroke-linecap="round" stroke-linejoin="round"/>
<path d="M11.9957 13.6997H12.0047" stroke="white" stroke-width="1.5" stroke-linecap="round" stroke-linejoin="round"/>
<path d="M11.9957 16.6997H12.0047" stroke="white" stroke-width="1.5" stroke-linecap="round" stroke-linejoin="round"/>
<path d="M8.29407 13.6997H8.30305" stroke="white" stroke-width="1.5" stroke-linecap="round" stroke-linejoin="round"/>
<path d="M8.29407 16.6997H8.30305" stroke="white" stroke-width="1.5" stroke-linecap="round" stroke-linejoin="round"/>
</g>
<defs>
<clipPath id="clip0_1470_650">
<rect width="24" height="24" fill="white"/>
</clipPath>
</defs>
</svg>
